# xmcd
#
# Track frame offsets:
#	150
#	20117
#	37205
#	61717
#	79864
#	98015
#	122740
#	146023
#	169810
#	183130
#	204060
#	220770
#	235472
#	252280
#	271750
#	290475
#	309720
#	329013
#
# Disc length: 4653 seconds
#
# Revision: 0
# Processed by: cddbd v1.5.1PL0 Copyright (c) Steve Scherf et al.
# Submitted via: dBpowerAMP V4.0
#
DISCID=08122b12
DTITLE=Tina Turner - All the Best The Hits
DYEAR=1900
DGENRE=
TTITLE0=I Don't Wanna Fight
TTITLE1=What's Love Got to Do With It
TTITLE2=Proud Mary
TTITLE3=Open Arms
TTITLE4=Private Dancer
TTITLE5=The Best
TTITLE6=Better Be Good to You
TTITLE7=Let's Stay Together
TTITLE8=Nutbush City Limits
TTITLE9=Missing You
TTITLE10=Complicated Disaster
TTITLE11=It's Only Love
TTITLE12=Look Me in the Heart
TTITLE13=On Silent Wings
TTITLE14=Two People
TTITLE15=Typical Male
TTITLE16=We Don't Need Another Hero (The Thunderdome)
TTITLE17=What You Get is What You See
EXTD=
EXTT0=
EXTT1=
EXTT2=
EXTT3=
EXTT4=
EXTT5=
EXTT6=
EXTT7=
EXTT8=
EXTT9=
EXTT10=
EXTT11=
EXTT12=
EXTT13=
EXTT14=
EXTT15=
EXTT16=
EXTT17=
PLAYORDER=
